<svg width="14" height="14" viewBox="0 0 14 14" fill="none" xmlns="http://www.w3.org/2000/svg">
<path d="M2.1 1.05C2.1 1.25767 2.03842 1.46068 1.92304 1.63335C1.80767 1.80602 1.64368 1.9406 1.45182 2.02007C1.25996 2.09955 1.04884 2.12034 0.845156 2.07982C0.641476 2.03931 0.454383 1.93931 0.307538 1.79246C0.160693 1.64562 0.0606904 1.45853 0.0201759 1.25485C-0.0203386 1.05117 0.00045495 0.840045 0.079927 0.648183C0.159399 0.456321 0.29398 0.292333 0.466652 0.176958C0.639323 0.0615821 0.84233 5.66419e-07 1.05 5.66419e-07C1.32838 0.000318996 1.59527 0.111046 1.79211 0.30789C1.98895 0.504734 2.09968 0.771621 2.1 1.05ZM7 5.66419e-07C6.79233 5.66419e-07 6.58932 0.0615821 6.41665 0.176958C6.24398 0.292333 6.1094 0.456321 6.02993 0.648183C5.95045 0.840045 5.92966 1.05117 5.97018 1.25485C6.01069 1.45853 6.11069 1.64562 6.25754 1.79246C6.40438 1.93931 6.59148 2.03931 6.79516 2.07982C6.99884 2.12034 7.20995 2.09955 7.40182 2.02007C7.59368 1.9406 7.75767 1.80602 7.87304 1.63335C7.98842 1.46068 8.05 1.25767 8.05 1.05C8.04968 0.771621 7.93895 0.504734 7.74211 0.30789C7.54527 0.111046 7.27838 0.000318996 7 5.66419e-07ZM12.95 2.1C13.1577 2.1 13.3607 2.03842 13.5333 1.92304C13.706 1.80767 13.8406 1.64368 13.9201 1.45182C13.9995 1.25996 14.0203 1.04884 13.9798 0.845156C13.9393 0.641476 13.8393 0.454383 13.6925 0.307538C13.5456 0.160693 13.3585 0.0606904 13.1548 0.0201759C12.9512 -0.0203386 12.74 0.00045495 12.5482 0.079927C12.3563 0.159399 12.1923 0.29398 12.077 0.466652C11.9616 0.639323 11.9 0.84233 11.9 1.05C11.9003 1.32838 12.011 1.59527 12.2079 1.79211C12.4047 1.98895 12.6716 2.09968 12.95 2.1ZM1.05 11.9C0.84233 11.9 0.639323 11.9616 0.466652 12.077C0.29398 12.1923 0.159399 12.3563 0.079927 12.5482C0.00045495 12.74 -0.0203386 12.9512 0.0201759 13.1548C0.0606904 13.3585 0.160693 13.5456 0.307538 13.6925C0.454383 13.8393 0.641476 13.9393 0.845156 13.9798C1.04884 14.0203 1.25996 13.9995 1.45182 13.9201C1.64368 13.8406 1.80767 13.706 1.92304 13.5333C2.03842 13.3607 2.1 13.1577 2.1 12.95C2.09968 12.6716 1.98895 12.4047 1.79211 12.2079C1.59527 12.011 1.32838 11.9003 1.05 11.9ZM7 11.9C6.79233 11.9 6.58932 11.9616 6.41665 12.077C6.24398 12.1923 6.1094 12.3563 6.02993 12.5482C5.95045 12.74 5.92966 12.9512 5.97018 13.1548C6.01069 13.3585 6.11069 13.5456 6.25754 13.6925C6.40438 13.8393 6.59148 13.9393 6.79516 13.9798C6.99884 14.0203 7.20995 13.9995 7.40182 13.9201C7.59368 13.8406 7.75767 13.706 7.87304 13.5333C7.98842 13.3607 8.05 13.1577 8.05 12.95C8.04968 12.6716 7.93895 12.4047 7.74211 12.2079C7.54527 12.011 7.27838 11.9003 7 11.9ZM12.95 11.9C12.7423 11.9 12.5393 11.9616 12.3667 12.077C12.194 12.1923 12.0594 12.3563 11.9799 12.5482C11.9005 12.74 11.8797 12.9512 11.9202 13.1548C11.9607 13.3585 12.0607 13.5456 12.2075 13.6925C12.3544 13.8393 12.5415 13.9393 12.7452 13.9798C12.9488 14.0203 13.16 13.9995 13.3518 13.9201C13.5437 13.8406 13.7077 13.706 13.823 13.5333C13.9384 13.3607 14 13.1577 14 12.95C13.9997 12.6716 13.889 12.4047 13.6921 12.2079C13.4953 12.011 13.2284 11.9003 12.95 11.9ZM1.05 5.95C0.84233 5.95 0.639323 6.01158 0.466652 6.12696C0.29398 6.24233 0.159399 6.40632 0.079927 6.59818C0.00045495 6.79004 -0.0203386 7.00116 0.0201759 7.20484C0.0606904 7.40852 0.160693 7.59562 0.307538 7.74246C0.454383 7.88931 0.641476 7.98931 0.845156 8.02982C1.04884 8.07034 1.25996 8.04954 1.45182 7.97007C1.64368 7.8906 1.80767 7.75602 1.92304 7.58335C2.03842 7.41068 2.1 7.20767 2.1 7C2.09968 6.72162 1.98895 6.45473 1.79211 6.25789C1.59527 6.06105 1.32838 5.95032 1.05 5.95ZM7 5.95C6.79233 5.95 6.58932 6.01158 6.41665 6.12696C6.24398 6.24233 6.1094 6.40632 6.02993 6.59818C5.95045 6.79004 5.92966 7.00116 5.97018 7.20484C6.01069 7.40852 6.11069 7.59562 6.25754 7.74246C6.40438 7.88931 6.59148 7.98931 6.79516 8.02982C6.99884 8.07034 7.20995 8.04954 7.40182 7.97007C7.59368 7.8906 7.75767 7.75602 7.87304 7.58335C7.98842 7.41068 8.05 7.20767 8.05 7C8.04968 6.72162 7.93895 6.45473 7.74211 6.25789C7.54527 6.06105 7.27838 5.95032 7 5.95ZM12.95 5.95C12.7423 5.95 12.5393 6.01158 12.3667 6.12696C12.194 6.24233 12.0594 6.40632 11.9799 6.59818C11.9005 6.79004 11.8797 7.00116 11.9202 7.20484C11.9607 7.40852 12.0607 7.59562 12.2075 7.74246C12.3544 7.88931 12.5415 7.98931 12.7452 8.02982C12.9488 8.07034 13.16 8.04954 13.3518 7.97007C13.5437 7.8906 13.7077 7.75602 13.823 7.58335C13.9384 7.41068 14 7.20767 14 7C13.9997 6.72162 13.889 6.45473 13.6921 6.25789C13.4953 6.06105 13.2284 5.95032 12.95 5.95Z" fill="black"/>
</svg>
