<svg width="34" height="34" viewBox="0 0 34 34" fill="none" xmlns="http://www.w3.org/2000/svg">
<path d="M26.4105 33.25H7.65286C6.6093 33.2498 5.57957 33.0113 4.64221 32.5529C3.70486 32.0944 2.88464 31.4279 2.24413 30.6044C1.60361 29.7809 1.15971 28.822 0.946291 27.8009C0.732872 26.7798 0.755568 25.7235 1.01265 24.7125L4.8142 9.2C4.88267 8.92266 5.0441 8.67712 5.27163 8.50427C5.49916 8.33142 5.77905 8.24168 6.06471 8.25H27.0108C27.2866 8.23738 27.5588 8.31637 27.7851 8.47465C28.0113 8.63294 28.1787 8.86161 28.2613 9.125L32.9882 24.325C33.3114 25.3574 33.3858 26.4515 33.2054 27.5181C33.025 28.5848 32.595 29.5937 31.9503 30.4625C31.3161 31.335 30.4825 32.0433 29.5188 32.5282C28.5551 33.0131 27.4894 33.2606 26.4105 33.25ZM7.00259 10.75L3.38862 25.3125C3.22768 25.955 3.21479 26.6256 3.3509 27.2738C3.48702 27.9221 3.76859 28.5309 4.17439 29.0545C4.58018 29.5781 5.09961 30.0027 5.69351 30.2964C6.2874 30.5901 6.94025 30.7452 7.60284 30.75H26.3605C27.041 30.7511 27.7121 30.5908 28.3187 30.2822C28.9252 29.9736 29.4498 29.5256 29.8494 28.975C30.2605 28.4212 30.5349 27.7781 30.6501 27.0982C30.7653 26.4182 30.718 25.7207 30.5122 25.0625L26.1104 10.75H7.00259Z" fill="black"/>
<path d="M22.0087 18.25C21.6771 18.25 21.359 18.1183 21.1245 17.8839C20.89 17.6495 20.7582 17.3315 20.7582 17V7C20.7582 6.00544 20.363 5.05161 19.6594 4.34835C18.9559 3.64509 18.0017 3.25 17.0067 3.25C16.0117 3.25 15.0575 3.64509 14.354 4.34835C13.6504 5.05161 13.2552 6.00544 13.2552 7V17C13.2552 17.3315 13.1234 17.6495 12.8889 17.8839C12.6544 18.1183 12.3363 18.25 12.0047 18.25C11.673 18.25 11.3549 18.1183 11.1204 17.8839C10.8859 17.6495 10.7542 17.3315 10.7542 17V7C10.7542 5.3424 11.4129 3.75269 12.5855 2.58058C13.7581 1.40848 15.3484 0.75 17.0067 0.75C18.665 0.75 20.2553 1.40848 21.4279 2.58058C22.6005 3.75269 23.2593 5.3424 23.2593 7V17C23.2593 17.3315 23.1275 17.6495 22.893 17.8839C22.6585 18.1183 22.3404 18.25 22.0087 18.25Z" fill="black"/>
</svg>
