<svg width="120" height="40" viewBox="0 0 120 40" fill="none" xmlns="http://www.w3.org/2000/svg">
<rect width="119.155" height="40" fill="white"/>
<mask id="path-1-inside-1_30_187" fill="white">
<path d="M29.8487 20.9472C29.8072 16.3816 33.5808 14.188 33.7508 14.0801C31.6277 10.9742 28.3268 10.5512 27.1491 10.5014C24.3417 10.2153 21.667 12.156 20.2405 12.156C18.814 12.156 16.6162 10.5429 14.2857 10.5885C11.2213 10.6341 8.39728 12.3675 6.81735 15.1127C3.63675 20.6279 6.00458 28.8096 9.10638 33.2923C10.6241 35.4818 12.428 37.9491 14.8041 37.8579C17.0931 37.7667 17.9557 36.3775 20.7174 36.3775C23.4792 36.3775 24.2588 37.8579 26.6722 37.8123C29.1313 37.7625 30.6905 35.573 32.1958 33.3752C33.9333 30.8332 34.6507 28.37 34.6921 28.2415C34.6382 28.2207 29.8984 26.4044 29.8487 20.9472"/>
</mask>
<path d="M33.7508 14.0801L35.3574 16.6137L37.9798 14.9507L36.2275 12.3872L33.7508 14.0801ZM27.1491 10.5014L26.8449 13.486L26.9335 13.495L27.0225 13.4988L27.1491 10.5014ZM14.2857 10.5885L14.3304 13.5882L14.3444 13.588L14.2857 10.5885ZM6.81735 15.1127L9.41617 16.6114L9.41747 16.6091L6.81735 15.1127ZM9.10638 33.2923L6.63939 34.9993L6.64081 35.0013L9.10638 33.2923ZM14.8041 37.8579L14.9192 40.8557L14.9236 40.8555L14.8041 37.8579ZM26.6722 37.8123L26.7289 40.8117L26.7329 40.8117L26.6722 37.8123ZM32.1958 33.3752L34.6709 35.0704L34.6725 35.0681L32.1958 33.3752ZM34.6921 28.2415L37.5473 29.1625L38.4188 26.4606L35.7691 25.4414L34.6921 28.2415ZM32.8486 20.92C32.8234 18.1493 35.1332 16.7558 35.3574 16.6137L32.1442 11.5466C32.2094 11.5053 32.0208 11.6217 31.8738 11.7192C31.7019 11.8333 31.4801 11.9883 31.226 12.1852C30.7214 12.5762 30.0738 13.1446 29.4314 13.9029C28.1372 15.4306 26.8199 17.7934 26.8488 20.9745L32.8486 20.92ZM36.2275 12.3872C33.2994 8.10368 28.7847 7.56788 27.2758 7.50412L27.0225 13.4988C27.8689 13.5345 29.9559 13.8447 31.2742 15.7731L36.2275 12.3872ZM27.4533 7.51691C25.3175 7.29923 23.3922 7.93654 22.1232 8.4126C21.3031 8.72029 21.0521 8.84064 20.5149 9.03313C20.0375 9.20423 20.032 9.15602 20.2405 9.15602V15.156C21.1623 15.156 22.0261 14.8652 22.5391 14.6814C22.9924 14.5189 23.853 14.172 24.2308 14.0303C25.3576 13.6075 26.1733 13.4175 26.8449 13.486L27.4533 7.51691ZM20.2405 9.15602C20.3888 9.15602 20.3626 9.18697 20.001 9.06413C19.6421 8.94219 19.2937 8.79487 18.6925 8.56033C17.6648 8.15938 16.0416 7.55359 14.227 7.58911L14.3444 13.588C14.8604 13.5779 15.5014 13.7558 16.5118 14.15C16.9297 14.313 17.5438 14.5661 18.071 14.7452C18.5956 14.9234 19.379 15.156 20.2405 15.156V9.15602ZM14.2411 7.58886C10.0534 7.6512 6.29077 10.0134 4.21722 13.6162L9.41747 16.6091C10.5038 14.7216 12.3891 13.6171 14.3304 13.5882L14.2411 7.58886ZM4.21853 13.614C2.15034 17.2003 1.99926 21.4182 2.65171 25.1116C3.30837 28.8288 4.84061 32.3997 6.6394 34.9993L11.5734 31.5852C10.2703 29.7021 9.06777 26.9409 8.56022 24.0678C8.04846 21.1708 8.30377 18.5403 9.41617 16.6114L4.21853 13.614ZM6.64081 35.0013C7.38135 36.0697 8.37844 37.491 9.58148 38.6189C10.7904 39.7523 12.5832 40.9454 14.9192 40.8557L14.689 34.8601C14.6489 34.8616 14.3517 34.8666 13.6852 34.2418C13.0129 33.6114 12.3491 32.7044 11.5719 31.5832L6.64081 35.0013ZM14.9236 40.8555C16.705 40.7845 17.9943 40.1674 18.7534 39.846C19.4636 39.5452 19.9317 39.3775 20.7174 39.3775V33.3775C18.7414 33.3775 17.3973 33.9044 16.4136 34.321C15.4787 34.7169 15.1922 34.84 14.6846 34.8603L14.9236 40.8555ZM20.7174 39.3775C21.463 39.3775 21.8834 39.5403 22.6337 39.8651C23.4725 40.2282 24.8067 40.8481 26.7289 40.8117L26.6155 34.8128C26.1243 34.8221 25.862 34.7246 25.0172 34.3589C24.0839 33.9548 22.7336 33.3775 20.7174 33.3775V39.3775ZM26.7329 40.8117C28.9392 40.767 30.6177 39.7347 31.8413 38.5899C33.0053 37.5009 33.9473 36.1268 34.6709 35.0704L29.7206 31.68C28.9389 32.8213 28.3487 33.641 27.7421 34.2086C27.1949 34.7205 26.8643 34.8078 26.6115 34.8129L26.7329 40.8117ZM34.6725 35.0681C35.6822 33.5908 36.3859 32.1525 36.8429 31.0721C37.0729 30.5284 37.2442 30.0665 37.363 29.7243C37.477 29.3958 37.5595 29.1245 37.5473 29.1625L31.837 27.3204C31.8018 27.4297 31.1916 29.5279 29.7191 31.6823L34.6725 35.0681ZM35.7691 25.4414C35.7689 25.4413 35.7727 25.4428 35.7769 25.4445C35.7806 25.4459 35.7836 25.4471 35.7858 25.4479C35.7901 25.4497 35.7906 25.4499 35.7877 25.4487C35.7817 25.4462 35.7614 25.4376 35.7288 25.4225C35.6632 25.3922 35.5508 25.3372 35.407 25.2551C35.1148 25.0883 34.7228 24.8266 34.3359 24.4587C33.5973 23.7567 32.8645 22.6733 32.8486 20.9199L26.8488 20.9746C26.8826 24.6784 28.5446 27.2318 30.2018 28.8073C31.0128 29.5782 31.8189 30.1156 32.4322 30.4657C32.7412 30.6421 33.0082 30.775 33.2123 30.8693C33.3146 30.9166 33.4018 30.9544 33.4711 30.9835C33.5059 30.998 33.5361 31.0103 33.5615 31.0204C33.5743 31.0255 33.5856 31.03 33.5955 31.0339C33.6005 31.0358 33.6049 31.0375 33.6087 31.039C33.6124 31.0404 33.6157 31.0417 33.6152 31.0415L35.7691 25.4414Z" fill="black" mask="url(#path-1-inside-1_30_187)"/>
<mask id="path-3-inside-2_30_187" fill="white">
<path d="M24.7412 7.90365C26.0012 6.37765 26.8512 4.25365 26.6192 2.13965C24.8032 2.21465 22.6052 3.34965 21.3032 4.87665C20.1382 6.22465 19.1032 8.38465 19.3912 10.4586C21.4112 10.6166 23.4812 9.42565 24.7412 7.90465"/>
</mask>
<path d="M26.6192 2.13965L29.6013 1.81238L29.2956 -0.973442L26.4954 -0.857796L26.6192 2.13965ZM21.3032 4.87665L23.573 6.8383L23.5795 6.83072L23.586 6.82311L21.3032 4.87665ZM19.3912 10.4586L16.4197 10.8713L16.7516 13.2613L19.1573 13.4495L19.3912 10.4586ZM27.0546 9.81374C28.7071 7.81236 29.9408 4.90611 29.6013 1.81238L23.6371 2.46692C23.7616 3.60119 23.2954 4.94294 22.4279 5.99355L27.0546 9.81374ZM26.4954 -0.857796C23.748 -0.744329 20.7981 0.84524 19.0204 2.93019L23.586 6.82311C24.4123 5.85406 25.8584 5.17363 26.743 5.13709L26.4954 -0.857796ZM19.0334 2.915C17.5411 4.64171 15.9707 7.63793 16.4197 10.8713L22.3627 10.046C22.2357 9.13136 22.7353 7.80759 23.573 6.8383L19.0334 2.915ZM19.1573 13.4495C22.4312 13.7056 25.3738 11.8437 27.0515 9.81847L22.431 5.99083C21.5887 7.0076 20.3912 7.5277 19.6252 7.46778L19.1573 13.4495Z" fill="black" mask="url(#path-3-inside-2_30_187)"/>
<path d="M44.192 15.992V29H41.168V15.992H44.192ZM42.68 10.976C43.128 10.976 43.52 11.096 43.856 11.336C44.192 11.56 44.36 11.968 44.36 12.56C44.36 13.136 44.192 13.552 43.856 13.808C43.52 14.048 43.128 14.168 42.68 14.168C42.216 14.168 41.816 14.048 41.48 13.808C41.16 13.552 41 13.136 41 12.56C41 11.968 41.16 11.56 41.48 11.336C41.816 11.096 42.216 10.976 42.68 10.976Z" fill="black"/>
<path d="M52.5706 29H49.5466V11.864H59.2666V14.432H52.5706V19.472H58.8106V22.04H52.5706V29Z" fill="black"/>
<path d="M70.1887 15.752C70.3807 15.752 70.6047 15.76 70.8607 15.776C71.1167 15.792 71.3327 15.824 71.5087 15.872L71.2447 18.68C71.1007 18.648 70.9087 18.624 70.6687 18.608C70.4447 18.576 70.2447 18.56 70.0687 18.56C69.5887 18.56 69.1247 18.64 68.6767 18.8C68.2447 18.944 67.8527 19.168 67.5007 19.472C67.1647 19.76 66.8927 20.136 66.6847 20.6C66.4927 21.064 66.3967 21.616 66.3967 22.256V29H63.3727V15.992H65.7007L66.1327 18.248H66.2767C66.5327 17.784 66.8527 17.368 67.2367 17C67.6207 16.616 68.0607 16.312 68.5567 16.088C69.0687 15.864 69.6127 15.752 70.1887 15.752Z" fill="black"/>
<path d="M86.6636 15.992V29H84.2876L83.8796 27.32H83.7356C83.4636 27.768 83.1116 28.136 82.6796 28.424C82.2476 28.696 81.7756 28.896 81.2636 29.024C80.7516 29.168 80.2236 29.24 79.6796 29.24C78.7196 29.24 77.8876 29.072 77.1836 28.736C76.4796 28.4 75.9436 27.888 75.5756 27.2C75.2076 26.496 75.0236 25.592 75.0236 24.488V15.992H78.0476V23.888C78.0476 24.848 78.2396 25.576 78.6236 26.072C79.0076 26.552 79.6156 26.792 80.4476 26.792C81.2636 26.792 81.9036 26.624 82.3676 26.288C82.8316 25.936 83.1596 25.432 83.3516 24.776C83.5436 24.12 83.6396 23.312 83.6396 22.352V15.992H86.6636Z" fill="black"/>
<path d="M94.718 19.424C94.718 19.84 94.702 20.28 94.67 20.744C94.638 21.192 94.606 21.632 94.574 22.064H94.646C94.774 21.872 94.926 21.664 95.102 21.44C95.278 21.2 95.454 20.968 95.63 20.744C95.822 20.504 96.006 20.288 96.182 20.096L100.022 15.992H103.454L98.246 21.608L103.79 29H100.262L96.23 23.432L94.718 24.68V29H91.718V10.76H94.718V19.424Z" fill="black"/>
<path d="M112.067 26.816C112.451 26.816 112.819 26.784 113.171 26.72C113.523 26.64 113.851 26.552 114.155 26.456V28.712C113.835 28.856 113.419 28.976 112.907 29.072C112.395 29.184 111.859 29.24 111.299 29.24C110.563 29.24 109.891 29.12 109.283 28.88C108.691 28.624 108.211 28.192 107.843 27.584C107.491 26.976 107.315 26.128 107.315 25.04V18.272H105.563V16.952L107.483 15.896L108.443 13.136H110.339V15.992H114.035V18.272H110.339V25.016C110.339 25.624 110.499 26.08 110.819 26.384C111.139 26.672 111.555 26.816 112.067 26.816Z" fill="black"/>
</svg>
